HIERARCHY
ROOT Hips
{
 OFFSET 0.000000 0.000000 0.000000
 CHANNELS 6 Xposition Yposition Zposition Yrotation Xrotation Zrotation
 JOINT Chest
 {
  OFFSET 0.000000 9.585900 0.002600
  CHANNELS 3 Yrotation Xrotation Zrotation
  JOINT Chest2
  {
   OFFSET 0.000000 9.601200 -0.005300
   CHANNELS 3 Yrotation Xrotation Zrotation
   JOINT Chest3
   {
    OFFSET 0.000000 9.561800 0.000000
    CHANNELS 3 Yrotation Xrotation Zrotation
    JOINT Chest4
    {
     OFFSET 0.000000 9.552100 0.000000
     CHANNELS 3 Yrotation Xrotation Zrotation
     JOINT Neck
     {
      OFFSET 0.000000 14.453000 0.000000
      CHANNELS 3 Yrotation Xrotation Zrotation
      JOINT Head
      {
       OFFSET 0.000000 8.936500 -0.011300
       CHANNELS 3 Yrotation Xrotation Zrotation
       End Site
       {
        OFFSET 0.000000 17.073600 -0.006000
       }
      }
     }
     JOINT RightCollar
     {
      OFFSET -2.921100 9.558500 0.000000
      CHANNELS 3 Yrotation Xrotation Zrotation
      JOINT RightShoulder
      {
       OFFSET -13.519700 0.000000 0.000000
       CHANNELS 3 Yrotation Xrotation Zrotation
       JOINT RightElbow
       {
        OFFSET 0.000000 -29.696600 0.000000
        CHANNELS 3 Yrotation Xrotation Zrotation
        JOINT RightWrist
        {
         OFFSET 0.000000 -24.004700 0.000000
         CHANNELS 3 Yrotation Xrotation Zrotation
         End Site
         {
          OFFSET 0.000000 -17.728500 0.000000
         }
        }
       }
      }
     }
     JOINT LeftCollar
     {
      OFFSET 2.921100 9.558500 0.000000
      CHANNELS 3 Yrotation Xrotation Zrotation
      JOINT LeftShoulder
      {
       OFFSET 13.519700 0.000000 0.000000
       CHANNELS 3 Yrotation Xrotation Zrotation
       JOINT LeftElbow
       {
        OFFSET 0.000000 -29.696600 0.000000
        CHANNELS 3 Yrotation Xrotation Zrotation
        JOINT LeftWrist
        {
         OFFSET 0.000000 -24.004700 0.000000
         CHANNELS 3 Yrotation Xrotation Zrotation
         End Site
         {
          OFFSET 0.000000 -17.728500 0.000000
         }
        }
       }
      }
     }
    }
   }
  }
 }
 JOINT RightHip
 {
  OFFSET -7.771700 -0.012900 -0.001300
  CHANNELS 3 Yrotation Xrotation Zrotation
  JOINT RightKnee
  {
   OFFSET 0.000000 -40.869800 0.001200
   CHANNELS 3 Yrotation Xrotation Zrotation
   JOINT RightAnkle
   {
    OFFSET 0.000000 -39.717900 0.002100
    CHANNELS 3 Yrotation Xrotation Zrotation
    JOINT RightToe
    {
     OFFSET 0.000000 -4.965400 11.033500
     CHANNELS 3 Yrotation Xrotation Zrotation
     End Site
     {
      OFFSET 0.000000 -1.423100 5.872300
     }
    }
   }
  }
 }
 JOINT LeftHip
 {
  OFFSET 7.771700 -0.012900 -0.001300
  CHANNELS 3 Yrotation Xrotation Zrotation
  JOINT LeftKnee
  {
   OFFSET 0.000000 -40.869800 0.001200
   CHANNELS 3 Yrotation Xrotation Zrotation
   JOINT LeftAnkle
   {
    OFFSET 0.000000 -39.717900 0.002100
    CHANNELS 3 Yrotation Xrotation Zrotation
    JOINT LeftToe
    {
     OFFSET 0.000000 -4.965400 11.033500
     CHANNELS 3 Yrotation Xrotation Zrotation
     End Site
     {
      OFFSET 0.000000 -1.423100 5.872300
     }
    }
   }
  }
 }
}
MOTION
Frames: 16
Frame Time: 0.008333
0.000000 85.388000 0.000000 0.000000 -5.767877 0.000000 0.000000 11.653817 0.000000 0.000000 -5.885947 0.000000 0.000000 -0.000000 0.000000 0.000000 -0.000000 0.000000 0.000000 12.528835 0.000000 0.000000 0.711642 0.000000 0.000000 -0.000000 0.000000 0.000000 0.000000 -90.000000 0.000000 -2.309062 0.000000 0.000000 2.309062 0.000000 0.000000 -0.000000 0.000000 0.000000 -0.000000 90.000000 0.000000 -2.309062 0.000000 0.000000 2.309062 0.000000 0.000000 8.520406 0.000000 0.000000 1.905762 0.000000 -0.000000 -4.658285 0.000000 0.000000 -0.000000 0.000000 0.000000 8.520406 0.000000 0.000000 1.905762 0.000000 -0.000000 -4.658285 0.000000 0.000000 -0.000000 0.000000
-213.840923 57.889033 -71.731719 161.139914 -4.284909 -0.163992 3.685631 4.444280 0.515217 0.107805 0.167500 -0.001538 0.197565 0.244849 -0.024665 3.187114 4.313104 -0.159522 3.774596 17.135884 1.270669 6.542581 -3.952068 1.063605 -0.521033 6.328095 -0.711904 -7.089652 -10.901290 -8.169924 157.241876 -74.877409 -134.049229 -1.394432 1.230530 -34.082999 -4.550151 7.355629 -1.422422 15.678290 -14.246248 7.307879 167.396050 -70.103767 162.871839 -6.621430 10.780769 5.578122 -10.676468 -67.148372 5.686620 -39.606319 71.597220 -41.667242 -5.599608 -7.703584 1.902296 -0.153230 0.782783 -0.107334 -4.636002 -69.574666 19.213911 43.842662 65.256949 37.133214 -17.663363 -10.288229 2.013442 -0.262196 -0.878026 0.073441
-213.836714 57.886140 -71.732608 161.150538 -4.331200 -0.190160 3.682244 4.452579 0.529351 0.114793 0.111137 -0.023570 0.189903 0.298631 -0.002854 3.190436 4.245963 -0.187861 3.741195 17.144929 1.303835 6.469498 -3.937559 1.136588 -0.524125 6.353868 -0.683808 -7.015056 -10.901788 -8.243825 157.410177 -75.090236 -134.176751 -1.430921 1.241328 -34.145437 -4.565734 7.296194 -1.490102 15.739882 -14.055138 7.199055 166.866598 -70.294321 163.405293 -6.544574 10.733256 5.672913 -10.763342 -67.098232 5.731780 -39.571801 71.620551 -41.604330 -5.591719 -7.715885 1.881389 -0.149434 0.785952 -0.102150 -4.646880 -69.545321 19.241841 43.834248 65.278303 37.134413 -17.671588 -10.283967 2.016233 -0.237499 -0.872970 0.018093
-213.833668 57.882919 -71.735267 161.163343 -4.393867 -0.210127 3.676342 4.477763 0.539266 0.118522 0.073554 -0.037776 0.185597 0.333742 0.010982 3.193994 4.182014 -0.216375 3.699645 17.158645 1.332177 6.382863 -3.914331 1.203602 -0.525848 6.429679 -0.644605 -6.928299 -10.955453 -8.337092 157.518385 -75.266585 -134.283724 -1.449323 1.272037 -34.160006 -4.589402 7.279826 -1.531026 15.810626 -13.895331 7.057014 166.345646 -70.484690 163.926379 -6.475208 10.696894 5.777874 -10.835350 -67.032874 5.755856 -39.537785 71.642931 -41.544725 -5.574604 -7.726808 1.848571 -0.149157 0.785099 -0.094192 -4.638600 -69.500184 19.247054 43.840625 65.300341 37.139918 -17.666036 -10.277560 2.034907 -0.241440 -0.880012 -0.007950
-213.831864 57.879179 -71.735242 161.170706 -4.447796 -0.232513 3.680602 4.458230 0.537663 0.114959 0.071648 -0.036610 0.191524 0.274229 -0.011298 3.189882 4.212103 -0.201903 3.650606 17.177654 1.355797 6.283906 -3.881155 1.264561 -0.507884 6.434644 -0.617415 -6.847875 -10.938153 -8.437101 157.609546 -75.403057 -134.437073 -1.442294 1.333054 -34.100934 -4.615034 7.288285 -1.558624 15.883703 -13.753670 6.897204 165.860810 -70.675701 164.406592 -6.409975 10.673247 5.893717 -10.902147 -66.976870 5.788056 -39.524171 71.658746 -41.502285 -5.569373 -7.738912 1.818170 -0.144080 0.788384 -0.087062 -4.627052 -69.464528 19.253241 43.830827 65.323816 37.132951 -17.646048 -10.271240 2.046461 -0.260418 -0.885326 -0.025717
-213.832825 57.875122 -71.733644 161.189829 -4.496555 -0.248676 3.669293 4.433262 0.529122 0.110610 0.107419 -0.022370 0.192559 0.253807 -0.018563 3.189122 4.167558 -0.216445 3.595616 17.202647 1.375467 6.175269 -3.836777 1.320406 -0.425827 6.380421 -0.582494 -6.818212 -10.856529 -8.555008 157.454687 -75.555835 -134.184650 -1.422154 1.333852 -34.204394 -4.641499 7.300920 -1.588700 15.948752 -13.614191 6.743343 165.420638 -70.872384 164.844976 -6.349036 10.657916 6.008566 -10.944456 -66.927317 5.799114 -39.549414 71.661864 -41.492552 -5.612089 -7.753288 1.798774 -0.091871 0.797856 -0.083481 -4.639898 -69.424995 19.261737 43.866438 65.324036 37.144065 -17.619416 -10.265576 2.077523 -0.331879 -0.883974 -0.058826
-213.836023 57.870998 -71.732003 161.192902 -4.550462 -0.256939 3.670404 4.414534 0.517604 0.108584 0.142672 -0.010781 0.192193 0.252422 -0.018782 3.186548 4.104062 -0.235187 3.535984 17.233050 1.392581 6.058820 -3.782305 1.373322 -0.334203 6.381255 -0.534626 -6.789573 -10.820490 -8.687626 157.276217 -75.648045 -133.968507 -1.409632 1.366333 -34.248977 -4.665774 7.317693 -1.623254 16.000503 -13.478831 6.604651 165.004470 -71.076104 165.266273 -6.292852 10.646408 6.114528 -10.982835 -66.875440 5.793018 -39.507473 71.681901 -41.420968 -5.597362 -7.767531 1.767075 -0.092328 0.805870 -0.077973 -4.618098 -69.380649 19.245216 43.856093 65.330018 37.143057 -17.632675 -10.261181 2.068144 -0.337680 -0.884126 -0.056337
-213.843226 57.866772 -71.729454 161.204326 -4.601748 -0.250952 3.657141 4.337045 0.480557 0.109697 0.198255 0.003464 0.188800 0.190166 -0.033891 3.186511 4.136694 -0.220900 3.471134 17.267932 1.407615 5.933427 -3.719558 1.424258 -0.234338 6.408633 -0.478043 -6.757186 -10.799928 -8.835962 157.123192 -75.715311 -133.807036 -1.386315 1.411212 -34.262758 -4.686560 7.338817 -1.662134 16.040132 -13.348527 6.483463 164.601421 -71.287463 165.677409 -6.237945 10.636153 6.216567 -11.001913 -66.829335 5.757026 -39.440027 71.705109 -41.344634 -5.567562 -7.779253 1.759857 -0.118976 0.815125 -0.083269 -4.532895 -69.351855 19.161571 43.850188 65.338739 37.152669 -17.675704 -10.230175 2.069107 -0.332336 -0.907245 -0.054446
-213.852672 57.862420 -71.724544 161.224863 -4.646297 -0.243235 3.633451 4.305409 0.454834 0.109922 0.198922 0.003039 0.185971 0.165958 -0.036168 3.185712 4.135594 -0.214726 3.400467 17.306615 1.420243 5.798211 -3.649565 1.472731 -0.117231 6.442572 -0.412811 -6.728825 -10.774048 -9.003115 156.970454 -75.772240 -133.648427 -1.362187 1.450183 -34.273014 -4.698042 7.381856 -1.691035 16.065353 -13.235367 6.359157 164.207780 -71.509449 166.075913 -6.184402 10.621624 6.320928 -11.050039 -66.791446 5.712292 -39.307169 71.747520 -41.204462 -5.492682 -7.788698 1.769645 -0.188128 0.819239 -0.114949 -4.453298 -69.329359 19.070119 43.851646 65.335285 37.156074 -17.660793 -10.181427 2.068303 -0.304100 -0.925369 -0.065647
-213.854137 57.858325 -71.718178 161.230784 -4.709652 -0.287167 3.626250 4.289086 0.488972 0.110839 0.195739 -0.002511 0.184100 0.166286 -0.030202 3.185370 4.117571 -0.211498 3.325430 17.348287 1.430603 5.655673 -3.573811 1.518598 0.015233 6.483148 -0.342366 -6.708691 -10.740079 -9.185612 156.845155 -75.824661 -133.517336 -1.342150 1.477840 -34.281329 -4.711476 7.409926 -1.737247 16.076986 -13.112891 6.266584 163.816547 -71.740439 166.468828 -6.134504 10.606335 6.423134 -11.134584 -66.722176 5.783334 -39.312191 71.743483 -41.177852 -5.511280 -7.784185 1.758707 -0.149357 0.817140 -0.124145 -4.461689 -69.303206 19.083513 43.853531 65.348932 37.202615 -17.640334 -10.139818 2.069401 -0.315729 -0.955744 -0.079602
-213.860153 57.853846 -71.707053 161.203673 -4.749192 -0.315310 3.648277 4.233102 0.507147 0.108506 0.155404 -0.007774 0.186899 0.223458 -0.021341 3.187585 4.101299 -0.205554 3.247108 17.391814 1.439732 5.507519 -3.494638 1.563329 0.159569 6.529435 -0.266763 -6.696800 -10.695061 -9.380714 156.773371 -75.877694 -133.436818 -1.331721 1.494387 -34.291598 -4.726644 7.419869 -1.796331 16.073199 -12.980274 6.205419 163.419979 -71.978796 166.864827 -6.087076 10.599371 6.515970 -11.186550 -66.680072 5.825040 -39.245031 71.741753 -41.055796 -5.510424 -7.775668 1.693815 -0.110862 0.821184 -0.109468 -4.469542 -69.282397 19.121345 43.865426 65.352735 37.230400 -17.629291 -10.120912 2.071908 -0.327372 -0.966065 -0.086245
-213.874893 57.849438 -71.699016 161.203514 -4.800801 -0.292198 3.640846 4.215979 0.475914 0.106608 0.136007 -0.010334 0.191416 0.275543 -0.013058 3.188888 4.072269 -0.203624 3.165017 17.417026 1.444995 5.353218 -3.415048 1.607771 0.314162 6.558479 -0.184759 -6.688945 -10.637788 -9.586368 156.759243 -75.940678 -133.415468 -1.329951 1.503340 -34.297619 -4.729916 7.454290 -1.818096 16.049803 -12.885639 6.114007 163.005056 -72.228932 167.277335 -6.040695 10.599417 6.599252 -11.178007 -66.638834 5.745819 -39.093612 71.777454 -40.902528 -5.441356 -7.785975 1.700609 -0.192086 0.836600 -0.122433 -4.367360 -69.252539 19.009836 43.890977 65.348833 37.265631 -17.645144 -10.080504 2.073060 -0.323035 -0.993411 -0.085614
-213.885302 57.845055 -71.688007 161.239329 -4.854523 -0.302387 3.601454 4.203925 0.476972 0.106806 0.135615 -0.010110 0.192925 0.304759 -0.009458 3.191554 4.087052 -0.197606 3.122917 17.420173 1.445840 5.152413 -3.354898 1.658978 0.481038 6.547741 -0.095628 -6.683322 -10.565507 -9.800287 156.788125 -76.020079 -133.443323 -1.331120 1.509233 -34.290512 -4.739655 7.406766 -1.859301 16.014236 -12.759802 6.070911 162.555814 -72.491204 167.719937 -5.996340 10.603100 6.673995 -11.240637 -66.587899 5.741865 -39.020358 71.791101 -40.823099 -5.424235 -7.783156 1.703802 -0.199718 0.839325 -0.132107 -4.396235 -69.207799 19.002312 43.868982 65.329628 37.230960 -17.628322 -10.037251 2.082865 -0.338660 -0.996541 -0.093809
-213.893405 57.840741 -71.675173 161.235993 -4.912133 -0.324288 3.604809 4.197088 0.494697 0.107082 0.151234 -0.007930 0.189814 0.239778 -0.017552 3.200575 4.123776 -0.185004 3.080791 17.478120 1.455721 4.950680 -3.295577 1.705318 0.657498 6.592277 0.009234 -6.676419 -10.471726 -10.018600 156.839961 -76.116496 -133.500575 -1.334375 1.517016 -34.272824 -4.749568 7.422629 -1.889975 15.974235 -12.641212 6.032296 162.069775 -72.762658 168.191752 -5.956872 10.610844 6.736547 -11.296068 -66.529486 5.772170 -38.952424 71.791306 -40.735730 -5.399020 -7.774635 1.682847 -0.199288 0.843135 -0.130429 -4.425157 -69.159183 19.034568 43.869602 65.315443 37.231166 -17.620498 -10.016918 2.076697 -0.341896 -0.988601 -0.093704
-213.900386 57.836171 -71.656703 161.194925 -4.948221 -0.357421 3.649415 4.168522 0.526894 0.107770 0.151161 -0.007712 0.191189 0.223963 -0.018982 3.230006 4.064304 -0.179998 2.972318 17.587223 1.468345 4.788024 -3.224416 1.735756 0.817287 6.702020 0.119604 -6.670719 -10.351297 -10.231119 156.898214 -76.224023 -133.570275 -1.340587 1.532437 -34.247769 -4.782579 7.529622 -1.906538 15.929238 -12.545494 5.981959 161.560108 -73.043786 168.682760 -5.924812 10.619583 6.783307 -11.357019 -66.487592 5.849733 -38.873574 71.768175 -40.621747 -5.385036 -7.749702 1.648640 -0.177692 0.846975 -0.136685 -4.409034 -69.155247 19.062687 43.882747 65.318442 37.278464 -17.618991 -9.979415 2.073534 -0.325063 -0.999178 -0.106526
-213.908850 57.832148 -71.643606 161.184127 -5.018187 -0.371194 3.665828 4.178260 0.541286 0.108866 0.135429 -0.009433 0.192787 0.239744 -0.016477 3.253389 4.057249 -0.171239 2.869879 17.623101 1.465375 4.617517 -3.153595 1.761685 0.987503 6.747614 0.215816 -6.669676 -10.206587 -10.424588 156.940776 -76.335362 -133.631497 -1.348159 1.558486 -34.216489 -4.812966 7.585681 -1.915139 15.884018 -12.464566 5.929290 161.021173 -73.333553 169.197635 -5.898421 10.624378 6.812300 -11.365517 -66.417311 5.855595 -38.824177 71.759023 -40.560025 -5.378124 -7.746689 1.632849 -0.171736 0.859809 -0.134672 -4.389374 -69.101596 19.055300 43.885603 65.313634 37.296611 -17.648073 -9.964086 2.067741 -0.333889 -0.997985 -0.109368
